<svg width="512" height="512" viewBox="0 0 512 512" fill="none" xmlns="http://www.w3.org/2000/svg">
<g clip-path="url(#clip0_446_11)">
<path d="M500 39C506.581 44.1917 511.328 51.3123 512.327 59.7678C512.879 73.6245 509.252 86.6946 505.988 100.056C505.113 103.654 504.26 107.257 503.404 110.86C501.933 117.041 500.45 123.219 498.958 129.395C496.595 139.173 494.258 148.958 491.925 158.743C491.136 162.052 490.346 165.36 489.557 168.669C489.361 169.488 489.166 170.308 488.965 171.152C487.577 176.965 486.186 182.777 484.793 188.588C478.518 214.78 472.343 240.995 466.225 267.224C463.659 278.224 461.083 289.221 458.508 300.219C458.252 301.312 457.996 302.406 457.732 303.532C451.511 330.105 445.274 356.674 439.021 383.239C438.69 384.646 438.359 386.053 438.028 387.46C437.865 388.153 437.702 388.846 437.534 389.56C436.398 394.387 435.263 399.214 434.13 404.041C432.613 410.499 431.094 416.956 429.572 423.412C429.013 425.788 428.454 428.164 427.897 430.541C427.131 433.806 426.361 437.071 425.59 440.335C425.37 441.275 425.151 442.215 424.925 443.184C421.814 456.304 418.701 467.051 407 475C398.452 479.569 389.192 479.806 380 477.191C371.575 473.846 364.853 467.123 358.045 461.277C354.135 457.924 350.134 454.717 346.062 451.563C340.558 447.29 335.243 442.837 329.976 438.276C325.867 434.725 321.682 431.291 317.422 427.922C312.903 424.336 308.459 420.659 304 417C302.167 415.5 300.334 414 298.5 412.5C297.599 411.763 296.698 411.025 295.77 410.266C293.872 408.713 291.973 407.161 290.074 405.609C285.365 401.76 280.662 397.906 276 394C273.282 395.294 270.851 396.717 268.41 398.477C267.719 398.974 267.028 399.472 266.317 399.984C265.201 400.796 265.201 400.796 264.062 401.625C262.882 402.481 262.882 402.481 261.677 403.354C254.669 408.46 247.774 413.71 240.891 418.985C234.381 423.968 227.805 428.851 221.188 433.691C214.112 438.882 207.141 444.209 200.203 449.584C184.522 461.646 184.522 461.646 175 461C170.243 459.228 167.908 457.099 165 453C161.578 444.783 160.067 435.918 158.626 427.177C158.026 423.547 157.396 419.923 156.771 416.297C156.639 415.53 156.508 414.762 156.372 413.972C154.51 403.168 152.44 392.403 150.383 381.635C148.719 372.898 147.129 364.157 145.696 355.379C141.377 316.027 141.377 316.027 121.685 284.097C112.302 278.234 102.107 275.477 91.3627 273.286C83.1538 271.507 75.6903 267.823 68.1272 264.264C64.2032 262.439 60.229 260.73 56.2578 259.012C54.7073 258.337 53.1568 257.661 51.6064 256.986C47.7725 255.326 43.9244 253.702 40.0692 252.092C37.1288 250.862 34.1945 249.618 31.2606 248.372C29.9086 247.803 28.5536 247.242 27.1952 246.688C17.2115 242.617 7.5736 237.586 2.4375 227.625C-0.86665 219.293 -1.57781 210.182 1.0586 201.523C6.54271 189.782 14.3028 185.489 26 181C30.516 179.392 35.065 177.899 39.625 176.422C40.9678 175.983 42.3104 175.543 43.653 175.103C46.5602 174.151 49.4683 173.202 52.3772 172.256C57.1326 170.708 61.8857 169.153 66.6384 167.596C67.4644 167.326 68.2904 167.056 69.1414 166.777C70.847 166.218 72.5525 165.66 74.2581 165.102C76.9076 164.234 79.5573 163.367 82.2071 162.501C102.053 156.009 121.88 149.46 141.707 142.911C151.337 139.731 160.967 136.553 170.597 133.374C172.74 132.666 174.884 131.959 177.027 131.251C199.203 123.931 221.382 116.62 243.562 109.313C245.369 108.717 247.176 108.122 248.982 107.527C252.594 106.337 256.206 105.146 259.818 103.956C260.712 103.662 261.606 103.367 262.527 103.064C264.331 102.47 266.135 101.875 267.938 101.281C283.696 96.0891 299.453 90.8956 315.21 85.7007C317.112 85.0738 319.013 84.447 320.914 83.8201C321.857 83.5094 322.799 83.1987 323.77 82.8786C329.426 81.0137 335.083 79.1495 340.74 77.2857C345.435 75.7388 350.13 74.1918 354.824 72.6446C355.757 72.3371 356.69 72.0296 357.652 71.7127C370.831 67.3689 384.006 63.014 397.18 58.6521C404.595 56.1967 412.012 53.7441 419.428 51.2922C425.482 49.2905 431.535 47.2851 437.586 45.2768C441.319 44.0391 445.053 42.8051 448.787 41.572C450.513 41.0011 452.239 40.4286 453.965 39.8545C456.331 39.0672 458.7 38.2854 461.069 37.5049C461.745 37.2786 462.42 37.0524 463.117 36.8192C476.112 32.5617 488.026 30.9692 500 39ZM474.167 66.1471C473.39 66.4025 472.612 66.6579 471.811 66.921C470.534 67.3484 470.534 67.3484 469.23 67.7844C467.874 68.2324 467.874 68.2324 466.49 68.6893C463.459 69.691 460.431 70.6991 457.402 71.7071C455.256 72.4177 453.11 73.128 450.964 73.8379C446.364 75.36 441.766 76.8849 437.168 78.412C429.886 80.8303 422.603 83.2425 415.319 85.6536C407.922 88.1023 400.525 90.5514 393.129 93.0024C373.856 99.3892 354.574 105.749 335.287 112.093C327.067 114.796 318.848 117.501 310.629 120.207C309.805 120.478 308.981 120.75 308.132 121.029C287.074 127.961 266.021 134.908 244.968 141.855C235.736 144.901 226.505 147.946 217.273 150.992C216.262 151.326 215.25 151.66 214.207 152.004C194.733 158.429 175.258 164.851 155.782 171.27C150.31 173.074 144.838 174.878 139.367 176.683C121.582 182.55 103.792 188.401 85.9855 194.204C80.8058 195.893 75.6273 197.585 70.4488 199.277C65.5913 200.864 60.7318 202.444 55.8705 204.019C52.9227 204.975 49.977 205.938 47.0317 206.902C45.6713 207.346 44.31 207.788 42.9478 208.226C41.1024 208.821 39.2602 209.425 37.4182 210.03C35.8744 210.532 35.8744 210.532 34.2995 211.044C31.8416 211.772 31.8415 211.772 31 214C48.1107 221.523 65.2215 229.045 82.3516 236.523C83.1748 236.883 83.998 237.242 84.8461 237.613C88.9045 239.383 92.9645 241.15 97.0273 242.911C103.947 245.912 110.859 248.921 117.727 252.038C120.515 253.303 123.31 254.554 126.105 255.805C127.393 256.386 128.679 256.974 129.961 257.569C131.707 258.38 133.465 259.165 135.223 259.949C136.688 260.62 136.688 260.62 138.184 261.303C143.26 262.559 147.266 260.029 151.598 257.523C152.466 257.026 153.335 256.529 154.229 256.016C155.164 255.475 156.099 254.933 157.062 254.375C159.131 253.191 161.2 252.009 163.27 250.828C164.363 250.204 165.457 249.579 166.584 248.936C172.445 245.615 178.348 242.371 184.25 239.125C186.722 237.765 189.193 236.404 191.664 235.043C192.276 234.706 192.888 234.369 193.519 234.022C199.896 230.509 206.262 226.975 212.625 223.438C214.284 222.515 214.284 222.515 215.976 221.575C218.203 220.336 220.43 219.098 222.657 217.859C228.27 214.737 233.885 211.619 239.5 208.5C241.75 207.25 244 206 246.25 204.75C313.75 167.25 313.75 167.25 317.129 165.373C319.367 164.13 321.604 162.886 323.842 161.643C329.042 158.753 334.242 155.865 339.446 152.983C341.863 151.644 344.279 150.305 346.696 148.965C348.37 148.038 350.044 147.112 351.719 146.186C357.959 142.725 364.126 139.175 370.231 135.48C375.633 132.592 380.906 131.003 387 132C390.837 134.027 393.998 136.101 396 140C397.234 144.915 397.636 149.495 395.246 154.148C390.004 161.937 382.656 168.391 376.012 174.969C373.084 177.876 370.224 180.781 367.562 183.938C364.11 188.026 360.299 191.737 356.5 195.5C350.825 201.085 350.825 201.085 345.5 207C341.463 211.794 336.92 216.103 332.471 220.51C328.79 224.168 325.278 227.877 321.934 231.848C318.49 235.68 314.772 239.246 311.111 242.87C308.151 245.811 305.253 248.744 302.562 251.938C299.11 256.026 295.299 259.737 291.5 263.5C285.825 269.085 285.825 269.085 280.5 275C276.462 279.795 271.919 284.105 267.469 288.512C264.37 291.592 261.317 294.655 258.5 298C256.217 300.661 253.863 303.183 251.359 305.637C250.687 306.301 250.015 306.966 249.322 307.65C247.966 308.983 246.606 310.312 245.24 311.635C241.937 314.878 239.137 317.83 237 322C237.666 322.545 238.333 323.091 239.02 323.652C264.5 344.5 264.5 344.5 267.273 346.77C269.028 348.205 270.783 349.64 272.539 351.074C278.948 356.312 285.339 361.572 291.728 366.835C297.475 371.57 303.234 376.289 309 381C310.833 382.5 312.667 384 314.5 385.5C315.408 386.243 316.315 386.985 317.25 387.75C334.667 402 352.083 416.25 369.5 430.5C370.398 431.235 371.297 431.97 372.223 432.727C374.149 434.303 376.073 435.881 377.996 437.461C378.967 438.258 379.937 439.054 380.938 439.875C381.813 440.594 382.688 441.314 383.59 442.055C387.364 445.59 387.364 445.59 392 447C392.135 446.424 392.271 445.849 392.41 445.256C392.832 443.464 393.253 441.673 393.675 439.881C394.191 437.69 394.706 435.498 395.222 433.307C396.575 427.554 397.929 421.802 399.283 416.049C400.106 412.551 400.929 409.053 401.752 405.555C401.922 404.833 402.092 404.11 402.267 403.366C404.597 393.461 406.928 383.556 409.258 373.651C411.121 365.732 412.984 357.813 414.848 349.895C415.036 349.092 415.225 348.289 415.42 347.463C420.728 324.903 426.037 302.345 431.35 279.787C439.415 245.536 447.475 211.284 455.523 177.029C456.002 174.992 456.48 172.955 456.959 170.919C460.922 154.052 464.88 137.184 468.83 120.315C469.935 115.597 471.041 110.881 472.149 106.164C473.422 100.744 474.691 95.3235 475.958 89.9022C476.419 87.933 476.881 85.9641 477.344 83.9955C477.97 81.3326 478.592 78.6688 479.213 76.0047C479.396 75.2282 479.58 74.4518 479.769 73.6518C480.454 70.6968 481 68.045 481 65C478.244 65 476.723 65.2992 474.167 66.1471ZM296 212C293.812 212.884 293.812 212.884 291.363 214.289C289.927 215.073 289.927 215.073 288.462 215.872C287.423 216.451 286.383 217.029 285.312 217.625C284.233 218.218 283.153 218.811 282.04 219.423C273.989 223.858 265.984 228.374 257.992 232.915C250.278 237.295 242.522 241.597 234.75 245.875C234.138 246.212 233.527 246.548 232.897 246.895C232.284 247.232 231.672 247.57 231.04 247.917C229.803 248.598 228.566 249.28 227.328 249.961C226.409 250.467 226.409 250.467 225.472 250.983C218.042 255.075 210.63 259.202 203.218 263.326C197.142 266.705 191.059 270.073 184.969 273.426C183.967 273.977 183.967 273.977 182.945 274.54C179.698 276.328 176.45 278.114 173.201 279.898C172.03 280.543 170.859 281.187 169.688 281.832C168.66 282.396 167.633 282.961 166.574 283.542C164.672 284.62 162.819 285.787 161 287C161.593 293.018 162.474 298.828 163.766 304.733C163.942 305.553 164.117 306.374 164.298 307.219C164.873 309.898 165.454 312.576 166.035 315.254C166.438 317.124 166.84 318.995 167.242 320.865C168.295 325.763 169.353 330.66 170.413 335.557C171.495 340.564 172.573 345.572 173.65 350.58C175.762 360.388 177.879 370.194 180 380C182.216 379.175 182.216 379.175 182.821 376.821C183.089 375.859 183.356 374.896 183.632 373.905C183.94 372.816 184.247 371.727 184.563 370.605C184.891 369.417 185.218 368.228 185.555 367.004C185.898 365.786 186.24 364.568 186.594 363.313C187.508 360.062 188.417 356.809 189.321 353.555C190.586 349.004 191.857 344.455 193.135 339.908C193.815 337.489 194.49 335.068 195.159 332.645C200.533 313.499 200.533 313.499 205.812 308.875C208.402 306.489 210.807 304.141 213.062 301.438C216.661 297.24 220.575 293.387 224.5 289.5C230.175 283.915 230.175 283.915 235.5 278C239.538 273.205 244.081 268.896 248.531 264.488C251.63 261.408 254.683 258.345 257.5 255C261.538 250.205 266.081 245.896 270.531 241.488C273.63 238.408 276.683 235.345 279.5 232C281.825 229.294 284.225 226.711 286.746 224.188C287.432 223.5 288.118 222.813 288.824 222.105C291.877 219.064 294.934 216.028 298 213C297.01 212.505 297.01 212.505 296 212ZM222 350C219.86 357.368 217.724 364.737 215.591 372.107C214.865 374.616 214.137 377.124 213.409 379.632C212.364 383.231 211.322 386.83 210.281 390.43C209.953 391.557 209.625 392.684 209.287 393.845C208.987 394.886 208.686 395.927 208.377 397C207.977 398.379 207.977 398.379 207.569 399.785C206.917 401.942 206.917 401.942 207 404C209.845 402.659 212.319 401.142 214.844 399.27C215.958 398.446 215.958 398.446 217.094 397.606C218.285 396.718 218.285 396.718 219.5 395.813C220.323 395.203 221.146 394.593 221.993 393.964C231.357 387.014 240.683 380.012 250 373C246.413 369.32 242.686 365.926 238.75 362.625C238.184 362.149 237.619 361.673 237.036 361.182C230.029 354.098 230.029 354.098 222 350Z" fill="white"/>
</g>
<defs>
<clipPath id="clip0_446_11">
<rect width="512" height="512" fill="white"/>
</clipPath>
</defs>
</svg>
