<svg width="512" height="512" viewBox="0 0 512 512" fill="none" xmlns="http://www.w3.org/2000/svg">
<path d="M131.157 31.1205C133.731 31.1148 136.305 31.1078 138.879 31.0997C145.114 31.0826 151.348 31.0816 157.582 31.0869C162.656 31.0909 167.73 31.0895 172.804 31.0841C173.529 31.0834 174.255 31.0826 175.002 31.0819C176.477 31.0803 177.951 31.0788 179.425 31.0773C193.215 31.0636 207.004 31.0689 220.794 31.0804C233.371 31.0904 245.948 31.0774 258.526 31.0535C271.483 31.029 284.44 31.0195 297.397 31.0262C304.655 31.0296 311.912 31.0275 319.169 31.0099C325.998 30.9935 332.826 30.9985 339.654 31.0172C342.148 31.0209 344.641 31.0179 347.135 31.0073C380.082 30.879 407.87 39.7358 432.193 62.7745C450.583 82.0059 461.857 108.112 461.773 134.749C461.778 135.823 461.782 136.898 461.787 138.005C461.799 141.578 461.798 145.15 461.796 148.722C461.802 151.295 461.809 153.869 461.817 156.442C461.833 162.69 461.839 168.939 461.84 175.187C461.841 180.273 461.845 185.358 461.851 190.443C461.869 204.896 461.878 219.349 461.877 233.802C461.876 234.58 461.876 235.357 461.876 236.159C461.876 236.937 461.876 237.716 461.876 238.518C461.875 251.121 461.894 263.725 461.923 276.328C461.951 289.303 461.965 302.278 461.963 315.254C461.963 322.524 461.968 329.795 461.99 337.066C462.01 343.911 462.009 350.755 461.995 357.6C461.993 360.1 461.997 362.6 462.009 365.1C462.14 393.768 456.505 419.027 437.506 441.525C436.828 442.337 436.15 443.149 435.451 443.985C418.634 463.436 395.012 476.115 369.506 479.525C365.965 479.674 362.427 479.672 358.883 479.672C357.812 479.675 356.742 479.679 355.639 479.683C352.051 479.694 348.464 479.698 344.876 479.702C342.303 479.708 339.731 479.714 337.158 479.721C329.436 479.741 321.714 479.751 313.993 479.76C310.349 479.765 306.705 479.77 303.061 479.775C290.935 479.792 278.808 479.807 266.682 479.814C263.537 479.816 260.393 479.818 257.249 479.82C256.467 479.82 255.686 479.821 254.881 479.821C242.245 479.829 229.609 479.855 216.973 479.887C203.975 479.92 190.978 479.938 177.98 479.942C170.692 479.944 163.405 479.952 156.117 479.978C149.252 480.002 142.387 480.006 135.522 479.995C133.014 479.995 130.506 480.001 127.998 480.015C94.9946 480.186 67.1863 471.356 42.8182 448.275C24.4288 429.043 13.1543 402.937 13.2383 376.3C13.2337 375.226 13.2292 374.151 13.2245 373.044C13.212 369.471 13.2135 365.899 13.2152 362.327C13.2092 359.754 13.2024 357.18 13.1948 354.607C13.1783 348.359 13.1727 342.11 13.1716 335.862C13.1706 330.777 13.1665 325.691 13.1602 320.606C13.1426 306.153 13.1333 291.7 13.1348 277.247C13.1349 276.469 13.135 275.692 13.1351 274.89C13.1352 274.112 13.1352 273.333 13.1353 272.531C13.1361 259.928 13.117 247.324 13.0888 234.721C13.06 221.746 13.0463 208.771 13.048 195.795C13.0487 188.525 13.0433 181.254 13.0216 173.983C13.0014 167.138 13.0022 160.294 13.0167 153.449C13.0188 150.949 13.0141 148.449 13.002 145.949C12.8569 114.06 20.7795 87.3152 42.5057 63.5245C43.1232 62.8362 43.7406 62.1478 44.3768 61.4386C67.7019 36.7151 98.8836 31.0556 131.157 31.1205ZM83.7557 61.1495C83.0623 61.4865 82.369 61.8235 81.6546 62.1708C74.5724 65.7574 68.4904 70.3458 62.5057 75.5245C61.8328 76.0969 61.1599 76.6692 60.4666 77.2589C45.3947 91.1609 36.1451 112.854 35.1378 133.104C34.9385 139.63 34.9641 146.156 34.9881 152.685C34.9827 155.182 34.9756 157.679 34.9669 160.176C34.9506 166.215 34.9529 172.253 34.9645 178.292C34.9736 183.206 34.9748 188.12 34.9704 193.034C34.9698 193.737 34.9692 194.441 34.9686 195.165C34.9673 196.595 34.966 198.024 34.9647 199.453C34.9533 212.811 34.9663 226.168 34.9879 239.525C35.0058 250.951 35.0026 262.376 34.9842 273.801C34.9627 287.115 34.9544 300.43 34.9667 313.744C34.9679 315.168 34.9692 316.591 34.9704 318.015C34.971 318.715 34.9717 319.415 34.9723 320.137C34.9757 325.037 34.97 329.937 34.9605 334.837C34.948 341.449 34.9571 348.061 34.9801 354.674C34.9853 357.089 34.9839 359.504 34.975 361.919C34.9201 378.374 35.6106 394.266 43.1307 409.275C43.4677 409.968 43.8047 410.661 44.1519 411.376C47.7386 418.458 52.3269 424.54 57.5057 430.525C58.078 431.197 58.6504 431.87 59.2401 432.564C73.142 447.636 94.8355 456.885 115.085 457.892C121.611 458.092 128.137 458.066 134.666 458.042C137.163 458.048 139.66 458.055 142.157 458.063C148.196 458.08 154.234 458.077 160.273 458.066C165.187 458.057 170.101 458.055 175.015 458.06C175.719 458.06 176.422 458.061 177.146 458.062C178.576 458.063 180.005 458.064 181.434 458.066C194.792 458.077 208.149 458.064 221.507 458.042C232.932 458.024 244.357 458.028 255.782 458.046C269.096 458.067 282.411 458.076 295.725 458.064C297.149 458.062 298.572 458.061 299.996 458.06C300.696 458.059 301.397 458.059 302.118 458.058C307.018 458.054 311.918 458.06 316.818 458.07C323.43 458.082 330.043 458.073 336.655 458.05C339.07 458.045 341.485 458.046 343.9 458.055C360.355 458.11 376.247 457.42 391.256 449.9C391.949 449.563 392.642 449.226 393.357 448.878C400.439 445.292 406.521 440.703 412.506 435.525C413.179 434.952 413.851 434.38 414.545 433.79C429.617 419.888 438.866 398.195 439.874 377.945C440.073 371.419 440.047 364.893 440.023 358.364C440.029 355.867 440.036 353.37 440.044 350.873C440.061 344.834 440.059 338.796 440.047 332.757C440.038 327.843 440.037 322.929 440.041 318.015C440.042 316.96 440.042 316.96 440.043 315.884C440.044 314.454 440.045 313.025 440.047 311.596C440.058 298.238 440.045 284.881 440.023 271.524C440.006 260.098 440.009 248.673 440.027 237.248C440.049 223.934 440.057 210.619 440.045 197.305C440.043 195.881 440.042 194.458 440.041 193.034C440.04 192.334 440.04 191.634 440.039 190.912C440.036 186.012 440.041 181.112 440.051 176.212C440.063 169.6 440.054 162.988 440.031 156.375C440.026 153.96 440.027 151.545 440.036 149.13C440.091 132.675 439.401 116.783 431.881 101.775C431.544 101.081 431.207 100.388 430.859 99.6734C427.273 92.5912 422.684 86.5092 417.506 80.5245C416.933 79.8516 416.361 79.1787 415.771 78.4855C401.869 63.4135 380.176 54.1639 359.927 53.1566C353.4 52.9573 346.874 52.9829 340.346 53.0069C337.848 53.0015 335.351 52.9944 332.854 52.9857C326.816 52.9695 320.777 52.9717 314.738 52.9834C309.824 52.9924 304.91 52.9936 299.996 52.9893C298.941 52.9883 298.941 52.9883 297.865 52.9874C296.436 52.9861 295.006 52.9848 293.577 52.9835C280.219 52.9721 266.862 52.9852 253.505 53.0067C242.08 53.0246 230.655 53.0215 219.229 53.003C205.915 52.9816 192.601 52.9732 179.286 52.9855C177.863 52.9868 176.439 52.988 175.015 52.9893C174.315 52.9899 173.615 52.9905 172.893 52.9911C167.993 52.9946 163.094 52.9888 158.194 52.9793C151.581 52.9669 144.969 52.9759 138.356 52.9989C135.941 53.0042 133.526 53.0028 131.111 52.9939C114.656 52.9389 98.7645 53.6294 83.7557 61.1495Z" fill="white"/>
<path d="M312.666 164.228C315.679 166.926 318.593 169.718 321.506 172.525C322.151 173.107 322.797 173.69 323.463 174.29C344.037 193.371 354.36 223.661 355.787 251.056C356.801 283.21 345.132 313.297 323.474 336.868C305.65 355.68 281.374 368.98 255.506 372.525C254.76 372.634 254.015 372.744 253.248 372.857C222.948 376.607 191.047 368.869 166.506 350.525C161.922 346.781 157.708 342.685 153.506 338.525C152.843 337.923 152.18 337.321 151.498 336.7C130.925 317.707 120.647 287.304 119.224 259.993C118.21 227.839 129.879 197.752 151.537 174.181C169.361 155.369 193.637 142.069 219.506 138.525C220.251 138.415 220.996 138.305 221.763 138.193C253.809 134.227 288.06 142.774 312.666 164.228ZM173.506 184.525C172.231 185.679 172.231 185.679 170.931 186.857C155.682 201.312 143.64 223.039 142.329 244.409C141.951 263.908 142.997 279.712 151.506 297.525C151.946 298.448 152.387 299.37 152.841 300.321C163.934 322.016 184.607 339.151 207.705 346.76C231.948 354.099 256.607 352.462 279.506 341.525C280.429 341.084 281.351 340.643 282.302 340.189C303.26 329.473 320.667 309.404 328.088 286.993C335.63 262.492 334.731 236.73 323.506 213.525C322.844 212.142 322.844 212.142 322.17 210.732C310.717 188.3 290.36 172.761 267.076 164.275C234.632 154.084 198.537 161.307 173.506 184.525Z" fill="white"/>
<path d="M381.396 98.2667C389.741 103.243 394.93 110.13 397.506 119.525C398.504 130.624 397.855 140.259 390.756 149.337C385.098 155.395 378.051 159.116 369.771 159.86C359.042 160.102 350.198 158.85 342.037 151.228C334.643 143.004 332.924 134.29 333.193 123.513C333.667 115.127 337.28 108.122 343.506 102.525C354.244 94.4491 369.072 92.3529 381.396 98.2667ZM357.506 120.525C355.177 123.74 355.108 126.633 355.506 130.525C356.782 133.334 357.817 135.026 360.318 136.837C364.366 138.109 367.385 138.034 371.256 136.275C373.674 134.393 374.593 133.427 375.506 130.525C375.998 125.893 375.376 123.215 372.506 119.525C367.521 115.915 362.156 116.908 357.506 120.525Z" fill="white"/>
</svg>
