<svg width="512" height="330" viewBox="0 0 512 330" fill="none" xmlns="http://www.w3.org/2000/svg">
<path d="M49.2632 0.373436C49.9877 0.371084 50.7122 0.368732 51.4586 0.366308C53.8932 0.359636 56.3278 0.360076 58.7624 0.360486C60.5228 0.357187 62.2833 0.353461 64.0438 0.349345C68.8872 0.339329 73.7307 0.335609 78.5742 0.332956C83.7959 0.329051 89.0177 0.319473 94.2394 0.310743C106.853 0.290982 119.467 0.280913 132.08 0.272015C138.021 0.267631 143.961 0.262265 149.902 0.257026C169.651 0.240014 189.401 0.22552 209.15 0.218277C214.275 0.216367 219.4 0.214447 224.524 0.212491C225.798 0.212008 227.072 0.211524 228.384 0.211026C249.016 0.202726 269.648 0.17739 290.28 0.144911C311.465 0.111834 332.65 0.093828 353.834 0.0906331C365.728 0.0884686 377.621 0.0797284 389.514 0.054172C399.644 0.0324562 409.773 0.0244189 419.903 0.0341388C425.069 0.0386809 430.235 0.036802 435.401 0.0173773C440.136 -0.000273021 444.871 0.000758583 449.606 0.0162746C451.314 0.0186478 453.021 0.014342 454.728 0.00244595C471.365 -0.106236 485.104 3.38678 498 14.5077C505.179 22.8968 512.107 33.4451 512.134 44.8422C512.139 45.7073 512.143 46.5724 512.148 47.4636C512.147 48.8823 512.147 48.8823 512.147 50.3297C512.151 51.3381 512.155 52.3464 512.158 53.3854C512.169 56.7745 512.173 60.1637 512.177 63.5528C512.183 65.9789 512.19 68.4049 512.197 70.831C512.216 78.119 512.227 85.4071 512.236 92.6951C512.24 96.1301 512.245 99.565 512.251 103C512.268 114.424 512.282 125.848 512.289 137.272C512.291 140.235 512.293 143.199 512.295 146.162C512.296 146.899 512.296 147.635 512.297 148.394C512.305 160.317 512.33 172.24 512.363 184.163C512.396 196.414 512.414 208.665 512.417 220.915C512.419 227.79 512.428 234.664 512.454 241.538C512.478 248.009 512.481 254.479 512.471 260.949C512.47 263.32 512.477 265.69 512.49 268.061C512.508 271.307 512.501 274.551 512.488 277.797C512.504 279.192 512.504 279.192 512.521 280.615C512.435 289.422 509.684 297.425 505 304.883C504.288 306.039 504.288 306.039 503.563 307.219C496.258 317.919 485.374 324.941 472.784 328.056C469.399 328.605 466.167 328.637 462.737 328.642C462.012 328.644 461.288 328.647 460.541 328.649C458.107 328.656 455.672 328.655 453.238 328.655C451.477 328.658 449.717 328.662 447.956 328.666C443.113 328.676 438.269 328.68 433.426 328.682C428.204 328.686 422.982 328.696 417.761 328.705C405.147 328.724 392.533 328.734 379.92 328.743C373.979 328.748 368.039 328.753 362.098 328.758C342.349 328.775 322.599 328.79 302.85 328.797C297.725 328.799 292.6 328.801 287.476 328.803C286.202 328.803 284.928 328.804 283.616 328.804C262.984 328.813 242.352 328.838 221.72 328.87C200.535 328.903 179.351 328.921 158.166 328.925C146.272 328.927 134.379 328.936 122.486 328.961C112.356 328.983 102.227 328.991 92.0973 328.981C86.9312 328.977 81.7652 328.979 76.5991 328.998C71.8639 329.016 67.129 329.015 62.3938 328.999C60.6865 328.997 58.9791 329.001 57.2718 329.013C40.6184 329.122 26.9211 325.612 14 314.508C11.7188 311.984 11.7188 311.984 9.50003 309.133C8.40175 307.76 8.40175 307.76 7.28128 306.359C-1.16064 293.199 -0.718209 279.474 -0.646945 264.375C-0.65373 261.952 -0.662639 259.53 -0.673495 257.107C-0.693837 251.239 -0.690986 245.372 -0.676433 239.504C-0.665088 234.731 -0.663631 229.957 -0.669051 225.183C-0.669817 224.501 -0.670585 223.819 -0.671374 223.116C-0.672973 221.729 -0.674591 220.342 -0.676234 218.956C-0.690453 205.987 -0.674162 193.019 -0.647235 180.051C-0.6249 168.951 -0.62878 157.852 -0.651828 146.752C-0.678654 133.826 -0.689082 120.901 -0.673766 107.976C-0.672174 106.594 -0.670602 105.213 -0.669051 103.832C-0.66828 103.153 -0.667508 102.473 -0.666713 101.773C-0.662416 97.0116 -0.669639 92.2501 -0.681449 87.4886C-0.69703 81.0664 -0.685757 74.6447 -0.656978 68.2226C-0.6504 65.8742 -0.652207 63.5257 -0.663291 61.1772C-0.742154 42.7622 0.950452 28.4908 14 14.5077C24.0448 5.45678 35.7657 0.392133 49.2632 0.373436ZM35 25.5077C37.6735 29.0497 40.3947 31.8251 43.875 34.5702C48.3248 38.1359 52.6848 41.7803 57 45.5077C61.1243 49.0627 65.2721 52.5756 69.5 56.0077C74.9008 60.3948 80.1747 64.9199 85.4492 69.4569C92.7103 75.7019 100.006 81.904 107.438 87.9452C112.856 92.3568 118.153 96.9009 123.449 101.457C130.71 107.702 138.006 113.904 145.438 119.945C150.856 124.357 156.153 128.901 161.449 133.457C168.71 139.702 176.006 145.904 183.438 151.945C188.856 156.357 194.153 160.901 199.449 165.457C206.71 171.702 214.006 177.904 221.438 183.945C225.637 187.364 229.768 190.854 233.875 194.383C234.46 194.882 235.045 195.382 235.648 195.897C238.668 198.48 241.656 201.09 244.605 203.754C245.186 204.269 245.767 204.784 246.366 205.315C247.471 206.296 248.567 207.288 249.65 208.294C251.896 210.267 253.403 211.468 256.434 211.668C260.211 209.96 262.956 207.412 266 204.633C267.338 203.442 268.677 202.252 270.016 201.062C270.684 200.464 271.352 199.865 272.041 199.249C274.904 196.704 277.821 194.226 280.75 191.758C281.284 191.307 281.818 190.855 282.367 190.391C285.697 187.584 289.059 184.818 292.438 182.07C297.856 177.659 303.153 173.114 308.449 168.558C315.71 162.313 323.006 156.111 330.438 150.07C335.856 145.659 341.153 141.114 346.449 136.558C353.71 130.313 361.006 124.111 368.438 118.07C373.856 113.659 379.153 109.114 384.449 104.558C391.71 98.3134 399.006 92.1113 406.438 86.0702C411.856 81.6585 417.153 77.1144 422.449 72.5584C429.71 66.3134 437.006 60.1113 444.438 54.0702C449.841 49.6702 455.125 45.1389 460.406 40.5936C465.907 35.8621 471.455 31.1868 477 26.5077C474.433 23.3705 471.861 22.5645 468 21.5077C464.478 21.208 464.478 21.208 460.665 21.2504C459.585 21.2451 459.585 21.2451 458.483 21.2398C456.069 21.2305 453.656 21.2354 451.242 21.2402C449.495 21.2365 447.747 21.2319 445.999 21.2265C441.196 21.2143 436.393 21.2145 431.589 21.2169C426.409 21.2173 421.229 21.2063 416.049 21.1968C405.9 21.1802 395.751 21.1747 385.602 21.1735C377.353 21.1726 369.105 21.1685 360.856 21.1621C337.474 21.1445 314.092 21.1353 290.71 21.1368C289.449 21.1369 288.188 21.137 286.889 21.1371C285.627 21.1371 284.365 21.1372 283.064 21.1373C262.604 21.1381 242.144 21.119 221.684 21.0908C200.68 21.0621 179.677 21.0482 158.673 21.05C146.879 21.0506 135.085 21.0451 123.291 21.0236C113.25 21.0054 103.209 21.001 93.1685 21.0146C88.0453 21.0212 82.9224 21.0212 77.7993 21.0039C73.1081 20.9882 68.4173 20.991 63.7261 21.0085C62.0303 21.0116 60.3345 21.0079 58.6387 20.9968C49.9364 20.9434 42.766 21.0479 35 25.5077ZM21 43.5077C20.1515 49.3826 19.8575 55.0647 19.873 60.9957C19.8715 61.9198 19.8699 62.8438 19.8683 63.7959C19.8643 66.8756 19.8675 69.9553 19.8706 73.035C19.8693 75.2498 19.8675 77.4645 19.8653 79.6793C19.8608 85.6833 19.8625 91.6873 19.8657 97.6913C19.8682 103.979 19.8659 110.267 19.8643 116.554C19.8624 127.789 19.8655 139.023 19.8706 150.257C19.875 160.434 19.8743 170.61 19.8697 180.786C19.8643 192.617 19.8623 204.448 19.8653 216.279C19.8668 222.537 19.867 228.794 19.8637 235.052C19.8608 240.936 19.8629 246.819 19.8686 252.702C19.8699 254.86 19.8696 257.017 19.8674 259.175C19.8646 262.123 19.8681 265.071 19.873 268.02C19.8708 268.87 19.8686 269.721 19.8663 270.597C19.8828 275.654 20.277 280.502 21 285.508C24.3975 283.989 27.0162 282.005 29.875 279.633C31.3291 278.426 31.3291 278.426 32.8125 277.195C37.3874 273.35 41.9193 269.456 46.4492 265.558C53.7103 259.313 61.0056 253.111 68.4375 247.07C73.8557 242.659 79.1527 238.114 84.4492 233.558C91.7103 227.313 99.0056 221.111 106.438 215.07C111.856 210.659 117.153 206.114 122.449 201.558C129.71 195.313 137.006 189.111 144.438 183.07C146.292 181.55 148.146 180.029 150 178.508C150.607 178.016 151.213 177.523 151.838 177.016C153.798 175.421 155.743 173.81 157.688 172.195C158.313 171.691 158.938 171.187 159.582 170.668C161.543 169.069 161.543 169.069 164 166.508C164.441 162.554 164.441 162.554 162.199 160.465C161.37 159.757 160.542 159.049 159.688 158.32C158.768 157.529 157.849 156.737 156.902 155.922C153.282 152.91 149.645 149.92 145.984 146.957C142.612 144.19 139.303 141.356 136 138.508C131.875 134.953 127.728 131.44 123.5 128.008C118.099 123.621 112.825 119.095 107.551 114.558C100.29 108.313 92.9945 102.111 85.5625 96.0702C80.1443 91.6585 74.8473 87.1144 69.5508 82.5584C62.2897 76.3134 54.9945 70.1113 47.5625 64.0702C42.5859 60.0216 37.7116 55.8622 32.8577 51.6681C27.4907 46.1663 27.4907 46.1663 21 43.5077ZM482.063 49.4452C480.691 50.6521 479.319 51.8578 477.945 53.0623C476.933 53.9513 476.933 53.9513 475.899 54.8582C473.454 56.9818 470.955 59.0333 468.438 61.0702C464.228 64.479 460.102 67.9717 456 71.5077C451.875 75.0622 447.728 78.5756 443.5 82.0077C438.096 86.3971 432.82 90.9245 427.543 95.4647C422.594 99.7212 417.605 103.929 412.618 108.14C410.971 109.532 409.327 110.928 407.684 112.324C402.678 116.575 397.66 120.803 392.563 124.945C387.144 129.357 381.847 133.901 376.551 138.457C373.149 141.383 369.735 144.294 366.313 147.195C365.783 147.645 365.254 148.095 364.708 148.558C362.105 150.762 359.483 152.933 356.813 155.055C355.328 156.238 355.328 156.238 353.813 157.445C352.932 158.135 352.052 158.824 351.145 159.535C349.061 161.452 348.042 162.905 347 165.508C353.198 171.25 359.475 176.784 366.051 182.094C369.414 184.846 372.709 187.669 376 190.508C380.125 194.062 384.272 197.576 388.5 201.008C393.347 204.942 398.083 208.993 402.811 213.068C406.312 216.08 409.848 219.038 413.438 221.945C418.542 226.088 423.496 230.389 428.451 234.708C432.96 238.63 437.547 242.438 442.191 246.199C445.503 248.921 448.753 251.709 452 254.508C456.982 258.801 462.026 263 467.133 267.144C471.187 270.486 475.167 273.912 479.143 277.348C484.51 282.849 484.51 282.849 491 285.508C491.849 279.633 492.143 273.951 492.127 268.02C492.129 267.096 492.13 266.171 492.132 265.219C492.136 262.14 492.133 259.06 492.129 255.98C492.131 253.766 492.133 251.551 492.135 249.336C492.139 243.332 492.138 237.328 492.134 231.324C492.132 225.036 492.134 218.749 492.136 212.461C492.138 201.227 492.135 189.992 492.129 178.758C492.125 168.582 492.126 158.406 492.13 148.229C492.136 136.398 492.138 124.567 492.135 112.736C492.133 106.479 492.133 100.221 492.136 93.9633C492.139 88.0798 492.137 82.1964 492.131 76.3129C492.13 74.1554 492.13 71.9979 492.133 69.8405C492.135 66.8922 492.132 63.944 492.127 60.9957C492.129 60.1451 492.131 59.2945 492.134 58.4181C492.117 53.3618 491.723 48.5135 491 43.5077C487.327 43.5077 484.708 47.0854 482.063 49.4452ZM175.625 183.945C171.295 187.691 166.949 191.402 162.5 195.008C157.099 199.395 151.825 203.92 146.551 208.457C139.29 214.702 131.994 220.904 124.563 226.945C119.144 231.357 113.847 235.901 108.551 240.457C101.312 246.683 94.0414 252.869 86.625 258.883C81.5027 263.049 76.5259 267.37 71.5496 271.708C67.0469 275.625 62.4659 279.427 57.8282 283.183C53.8148 286.482 49.8794 289.868 45.9451 293.26C42.3261 296.379 38.6782 299.458 35 302.508C37.5668 305.645 40.1389 306.451 44 307.508C47.5216 307.807 47.5216 307.807 51.3349 307.765C52.4151 307.77 52.4151 307.77 53.5171 307.776C55.9307 307.785 58.344 307.78 60.7577 307.775C62.5054 307.779 64.253 307.783 66.0007 307.789C70.8041 307.801 75.6074 307.801 80.4107 307.798C85.5908 307.798 90.7709 307.809 95.9509 307.819C106.1 307.835 116.249 307.841 126.398 307.842C134.647 307.843 142.895 307.847 151.144 307.853C174.526 307.871 197.908 307.88 221.29 307.879C222.551 307.878 223.812 307.878 225.111 307.878C226.373 307.878 227.635 307.878 228.936 307.878C249.396 307.877 269.856 307.896 290.316 307.925C311.32 307.953 332.323 307.967 353.327 307.965C365.121 307.965 376.915 307.97 388.709 307.992C398.75 308.01 408.791 308.014 418.832 308.001C423.955 307.994 429.078 307.994 434.201 308.011C438.892 308.027 443.583 308.024 448.274 308.007C449.97 308.004 451.666 308.007 453.361 308.019C462.064 308.072 469.234 307.967 477 303.508C474.327 299.966 471.605 297.19 468.125 294.445C463.675 290.879 459.315 287.235 455 283.508C450.876 279.953 446.728 276.44 442.5 273.008C437.099 268.621 431.825 264.095 426.551 259.558C419.29 253.313 411.994 247.111 404.563 241.07C399.144 236.659 393.847 232.114 388.551 227.558C381.29 221.313 373.994 215.111 366.563 209.07C362.363 205.651 358.231 202.162 354.125 198.633C353.247 197.879 353.247 197.879 352.352 197.11C349.964 195.057 347.576 193.004 345.19 190.948C343.442 189.443 341.69 187.944 339.938 186.445C339.414 185.992 338.89 185.539 338.35 185.073C335.386 182.546 332.399 180.41 329 178.508C327.68 179.625 326.359 180.742 325.039 181.86C323.872 182.846 322.706 183.833 321.54 184.82C318.567 187.334 315.596 189.85 312.629 192.371C307.641 196.606 302.641 200.818 297.563 204.945C293.363 208.364 289.231 211.853 285.125 215.383C284.54 215.885 283.955 216.388 283.352 216.906C280.964 218.958 278.576 221.012 276.19 223.068C274.442 224.572 272.69 226.072 270.938 227.57C270.414 228.023 269.89 228.476 269.35 228.943C264.565 233.022 260.656 236.286 254.086 235.969C249.914 235.047 247.149 232.263 244 229.508C242.489 228.241 240.977 226.975 239.465 225.71C237.205 223.809 234.96 221.891 232.714 219.972C229.94 217.602 227.159 215.241 224.375 212.883C223.833 212.423 223.292 211.964 222.733 211.491C219.372 208.648 215.98 205.847 212.563 203.07C208.293 199.597 204.105 196.039 199.938 192.445C188.367 179.875 188.367 179.875 175.625 183.945Z" fill="white"/>
</svg>
