<svg width="136" height="165" viewBox="0 0 136 165" fill="none" xmlns="http://www.w3.org/2000/svg">
<g filter="url(#filter0_di_88_5)">
<path d="M20.3257 35.4375L41.3257 16.2635C41.9676 15.6775 43 16.1329 43 17.002V66.7248C43 67.281 43.4538 67.7303 44.01 67.7248L93 67.2349V38.1491C93 37.8839 93.1054 37.6295 93.2929 37.442L114.293 16.442C114.923 15.812 116 16.2582 116 17.1491V118.217C116 118.482 115.895 118.736 115.707 118.924L94.7071 139.924C94.0771 140.554 93 140.107 93 139.217V81.7349V67.2349L72.7929 87.442C72.6054 87.6295 72.351 87.7349 72.0858 87.7349H46.3333C46.117 87.7349 45.9064 87.805 45.7333 87.9349L42.4 90.4349C42.1482 90.6237 42 90.9201 42 91.2349V118.321C42 118.586 41.8946 118.84 41.7071 119.028L21.7071 139.028C21.0771 139.658 20 139.212 20 138.321V36.1759C20 35.8949 20.1182 35.6269 20.3257 35.4375Z" fill="url(#paint0_linear_88_5)"/>
</g>
<defs>
<filter id="filter0_di_88_5" x="0" y="0" width="136" height="164.219" filterUnits="userSpaceOnUse" color-interpolation-filters="sRGB">
<feFlood flood-opacity="0" result="BackgroundImageFix"/>
<feColorMatrix in="SourceAlpha" type="matrix" values="0 0 0 0 0 0 0 0 0 0 0 0 0 0 0 0 0 0 127 0" result="hardAlpha"/>
<feOffset dy="4"/>
<feGaussianBlur stdDeviation="10"/>
<feComposite in2="hardAlpha" operator="out"/>
<feColorMatrix type="matrix" values="0 0 0 0 0.184314 0 0 0 0 0.501961 0 0 0 0 0.929412 0 0 0 0.3 0"/>
<feBlend mode="normal" in2="BackgroundImageFix" result="effect1_dropShadow_88_5"/>
<feBlend mode="normal" in="SourceGraphic" in2="effect1_dropShadow_88_5" result="shape"/>
<feColorMatrix in="SourceAlpha" type="matrix" values="0 0 0 0 0 0 0 0 0 0 0 0 0 0 0 0 0 0 127 0" result="hardAlpha"/>
<feOffset dy="2"/>
<feGaussianBlur stdDeviation="1"/>
<feComposite in2="hardAlpha" operator="arithmetic" k2="-1" k3="1"/>
<feColorMatrix type="matrix" values="0 0 0 0 1 0 0 0 0 1 0 0 0 0 1 0 0 0 0.2 0"/>
<feBlend mode="normal" in2="shape" result="effect2_innerShadow_88_5"/>
</filter>
<linearGradient id="paint0_linear_88_5" x1="68" y1="14.7349" x2="68" y2="141.631" gradientUnits="userSpaceOnUse">
<stop stop-color="#2F80ED"/>
<stop offset="1" stop-color="#1B4987"/>
</linearGradient>
</defs>
</svg>
