<svg width="512" height="446" viewBox="0 0 512 446" fill="none" xmlns="http://www.w3.org/2000/svg">
<path d="M500 5.70119C506.581 10.8929 511.328 18.0135 512.327 26.469C512.879 40.3256 509.252 53.3958 505.988 66.7568C505.113 70.3552 504.26 73.9586 503.404 77.5615C501.933 83.7424 500.45 89.9203 498.958 96.0961C496.595 105.874 494.258 115.659 491.925 125.444C491.136 128.753 490.346 132.061 489.557 135.37C489.361 136.189 489.166 137.009 488.965 137.853C487.577 143.666 486.186 149.478 484.793 155.29C478.518 181.482 472.343 207.696 466.225 233.925C463.659 244.925 461.083 255.922 458.508 266.92C458.252 268.013 457.996 269.107 457.732 270.234C451.511 296.806 445.274 323.375 439.021 349.94C438.69 351.347 438.359 352.754 438.028 354.161C437.865 354.854 437.702 355.547 437.534 356.261C436.398 361.088 435.263 365.915 434.13 370.743C432.613 377.2 431.094 383.657 429.572 390.113C429.013 392.489 428.454 394.866 427.897 397.242C427.131 400.507 426.361 403.772 425.59 407.036C425.37 407.976 425.151 408.917 424.925 409.885C421.814 423.006 418.701 433.752 407 441.701C398.452 446.27 389.192 446.507 380 443.893C371.575 440.547 364.853 433.824 358.045 427.978C354.135 424.625 350.134 421.418 346.062 418.264C340.558 413.992 335.243 409.538 329.976 404.978C325.867 401.426 321.682 397.992 317.422 394.623C312.903 391.037 308.459 387.36 304 383.701C302.167 382.201 300.334 380.701 298.5 379.201C297.599 378.464 296.698 377.727 295.77 376.967C293.872 375.414 291.973 373.862 290.074 372.311C285.365 368.462 280.662 364.607 276 360.701C273.282 361.995 270.851 363.418 268.41 365.178C267.719 365.675 267.028 366.173 266.317 366.685C265.201 367.498 265.201 367.498 264.062 368.326C262.882 369.182 262.882 369.182 261.677 370.055C254.669 375.161 247.774 380.412 240.891 385.686C234.381 390.669 227.805 395.552 221.188 400.392C214.112 405.583 207.141 410.91 200.203 416.285C184.522 428.347 184.522 428.347 175 427.701C170.243 425.929 167.908 423.8 165 419.701C161.578 411.485 160.067 402.619 158.626 393.878C158.026 390.248 157.396 386.624 156.771 382.998C156.639 382.231 156.508 381.464 156.372 380.673C154.51 369.869 152.44 359.104 150.383 348.336C148.719 339.599 147.129 330.859 145.696 322.08C141.377 282.728 141.377 282.728 121.685 250.798C112.302 244.935 102.107 242.178 91.3627 239.987C83.1538 238.208 75.6903 234.524 68.1272 230.965C64.2032 229.14 60.229 227.432 56.2578 225.713C54.7073 225.038 53.1568 224.362 51.6064 223.687C47.7725 222.027 43.9244 220.403 40.0692 218.793C37.1288 217.563 34.1945 216.319 31.2606 215.074C29.9086 214.505 28.5536 213.943 27.1952 213.389C17.2115 209.318 7.5736 204.287 2.4375 194.326C-0.86665 185.994 -1.57781 176.883 1.0586 168.225C6.54271 156.484 14.3028 152.19 26 147.701C30.516 146.094 35.065 144.6 39.625 143.123C40.9678 142.684 42.3104 142.244 43.653 141.804C46.5602 140.852 49.4683 139.903 52.3772 138.957C57.1326 137.409 61.8857 135.854 66.6384 134.298C67.4644 134.027 68.2904 133.757 69.1414 133.478C70.847 132.92 72.5525 132.361 74.2581 131.803C76.9076 130.935 79.5573 130.069 82.2071 129.202C102.053 122.71 121.88 116.161 141.707 109.613C151.337 106.432 160.967 103.254 170.597 100.075C172.74 99.3676 174.884 98.6601 177.027 97.9525C199.203 90.6325 221.382 83.3216 243.562 76.0137C245.369 75.4184 247.176 74.8232 248.982 74.2279C252.594 73.0378 256.206 71.8477 259.818 70.6575C260.712 70.363 261.606 70.0686 262.527 69.7651C264.331 69.1708 266.135 68.5765 267.938 67.9822C283.696 62.7902 299.453 57.5968 315.21 52.4019C317.112 51.775 319.013 51.1481 320.914 50.5213C321.857 50.2106 322.799 49.8999 323.77 49.5797C329.426 47.7149 335.083 45.8506 340.74 43.9869C345.435 42.44 350.13 40.8929 354.824 39.3457C355.757 39.0382 356.69 38.7307 357.652 38.4139C370.831 34.07 384.006 29.7152 397.18 25.3533C404.595 22.8979 412.012 20.4453 419.428 17.9933C425.482 15.9917 431.535 13.9862 437.586 11.9779C441.319 10.7403 445.053 9.50623 448.787 8.27321C450.513 7.70226 452.239 7.12979 453.965 6.55567C456.331 5.7684 458.7 4.98661 461.069 4.20607C461.745 3.9798 462.42 3.75352 463.117 3.52039C476.112 -0.737137 488.026 -2.32965 500 5.70119ZM474.167 32.8482C473.39 33.1036 472.612 33.3591 471.811 33.6222C470.534 34.0496 470.534 34.0496 469.23 34.4856C467.874 34.9335 467.874 34.9335 466.49 35.3905C463.459 36.3922 460.431 37.4002 457.402 38.4082C455.256 39.1189 453.11 39.8292 450.964 40.5391C446.364 42.0612 441.766 43.5861 437.168 45.1131C429.886 47.5314 422.603 49.9437 415.319 52.3548C407.922 54.8035 400.525 57.2525 393.129 59.7036C373.856 66.0904 354.574 72.4506 335.287 78.7937C327.067 81.4971 318.848 84.2026 310.629 86.9082C309.805 87.1795 308.981 87.4507 308.132 87.7302C287.074 94.662 266.021 101.609 244.968 108.556C235.736 111.602 226.505 114.648 217.273 117.693C216.262 118.027 215.25 118.361 214.207 118.705C194.733 125.13 175.258 131.552 155.782 137.971C150.31 139.775 144.838 141.579 139.367 143.384C121.582 149.251 103.792 155.103 85.9855 160.905C80.8058 162.594 75.6273 164.286 70.4488 165.978C65.5913 167.565 60.7318 169.145 55.8705 170.72C52.9227 171.676 49.977 172.639 47.0317 173.603C45.6713 174.047 44.31 174.489 42.9478 174.927C41.1024 175.522 39.2602 176.126 37.4182 176.731C35.8744 177.233 35.8744 177.233 34.2995 177.745C31.8416 178.473 31.8415 178.473 31 180.701C48.1107 188.224 65.2215 195.746 82.3516 203.225C83.1748 203.584 83.998 203.943 84.8461 204.314C88.9045 206.085 92.9645 207.852 97.0273 209.612C103.947 212.613 110.859 215.622 117.727 218.74C120.515 220.004 123.31 221.256 126.105 222.506C127.393 223.087 128.679 223.675 129.961 224.27C131.707 225.081 133.465 225.866 135.223 226.65C136.688 227.321 136.688 227.321 138.184 228.005C143.26 229.26 147.266 226.73 151.598 224.225C152.466 223.727 153.335 223.23 154.229 222.717C155.164 222.176 156.099 221.634 157.062 221.076C159.131 219.892 161.2 218.71 163.27 217.529C164.363 216.905 165.457 216.28 166.584 215.637C172.445 212.316 178.348 209.072 184.25 205.826C186.722 204.466 189.193 203.105 191.664 201.744C192.276 201.407 192.888 201.07 193.519 200.723C199.896 197.21 206.262 193.676 212.625 190.139C214.284 189.217 214.284 189.217 215.976 188.276C218.203 187.037 220.43 185.799 222.657 184.56C228.27 181.439 233.885 178.32 239.5 175.201C241.75 173.951 244 172.701 246.25 171.451C313.75 133.951 313.75 133.951 317.129 132.074C319.367 130.831 321.604 129.587 323.842 128.344C329.042 125.454 334.242 122.566 339.446 119.684C341.863 118.346 344.279 117.006 346.696 115.666C348.37 114.739 350.044 113.813 351.719 112.887C357.959 109.427 364.126 105.876 370.231 102.182C375.633 99.2936 380.906 97.7038 387 98.7012C390.837 100.728 393.998 102.802 396 106.701C397.234 111.617 397.636 116.197 395.246 120.85C390.004 128.639 382.656 135.093 376.012 141.67C373.084 144.578 370.224 147.482 367.562 150.639C364.11 154.727 360.299 158.439 356.5 162.201C350.825 167.787 350.825 167.787 345.5 173.701C341.463 178.496 336.92 182.804 332.471 187.211C328.79 190.87 325.278 194.579 321.934 198.549C318.49 202.382 314.772 205.948 311.111 209.571C308.151 212.512 305.253 215.445 302.562 218.639C299.11 222.727 295.299 226.439 291.5 230.201C285.825 235.787 285.825 235.787 280.5 241.701C276.462 246.496 271.919 250.806 267.469 255.213C264.37 258.293 261.317 261.356 258.5 264.701C256.217 267.362 253.863 269.884 251.359 272.338C250.687 273.002 250.015 273.667 249.322 274.352C247.966 275.685 246.606 277.013 245.24 278.336C241.937 281.579 239.137 284.531 237 288.701C237.666 289.246 238.333 289.792 239.02 290.354C264.5 311.201 264.5 311.201 267.273 313.471C269.028 314.906 270.783 316.341 272.539 317.775C278.948 323.013 285.339 328.273 291.728 333.537C297.475 338.271 303.234 342.99 309 347.701C310.833 349.201 312.667 350.701 314.5 352.201C315.408 352.944 316.315 353.686 317.25 354.451C334.667 368.701 352.083 382.951 369.5 397.201C370.398 397.936 371.297 398.671 372.223 399.428C374.149 401.004 376.073 402.582 377.996 404.162C378.967 404.959 379.937 405.755 380.938 406.576C381.813 407.295 382.688 408.015 383.59 408.756C387.364 412.291 387.364 412.291 392 413.701C392.135 413.126 392.271 412.55 392.41 411.957C392.832 410.165 393.253 408.374 393.675 406.582C394.191 404.391 394.706 402.2 395.222 400.008C396.575 394.256 397.929 388.503 399.283 382.75C400.106 379.252 400.929 375.754 401.752 372.257C401.922 371.534 402.092 370.812 402.267 370.067C404.597 360.162 406.928 350.257 409.258 340.353C411.121 332.434 412.984 324.515 414.848 316.596C415.036 315.793 415.225 314.991 415.42 314.164C420.728 291.605 426.037 269.046 431.35 246.488C439.415 212.237 447.475 177.985 455.523 143.73C456.002 141.693 456.48 139.657 456.959 137.62C460.922 120.753 464.88 103.885 468.83 87.0158C469.935 82.2986 471.041 77.5818 472.149 72.8653C473.422 67.4454 474.691 62.0247 475.958 56.6034C476.419 54.6342 476.881 52.6653 477.344 50.6966C477.97 48.0337 478.592 45.3699 479.213 42.7058C479.396 41.9294 479.58 41.153 479.769 40.353C480.454 37.3979 481 34.7462 481 31.7012C478.244 31.7012 476.723 32.0004 474.167 32.8482ZM296 178.701C293.812 179.585 293.812 179.585 291.363 180.99C289.927 181.774 289.927 181.774 288.462 182.574C287.423 183.152 286.383 183.73 285.312 184.326C284.233 184.919 283.153 185.513 282.04 186.124C273.989 190.559 265.984 195.075 257.992 199.616C250.278 203.996 242.522 208.298 234.75 212.576C234.138 212.913 233.527 213.25 232.897 213.596C232.284 213.934 231.672 214.271 231.04 214.618C229.803 215.3 228.566 215.981 227.328 216.662C226.409 217.168 226.409 217.168 225.472 217.684C218.042 221.776 210.63 225.903 203.218 230.028C197.142 233.407 191.059 236.774 184.969 240.127C183.967 240.679 183.967 240.679 182.945 241.241C179.698 243.029 176.45 244.816 173.201 246.6C172.03 247.244 170.859 247.889 169.688 248.533C168.66 249.098 167.633 249.662 166.574 250.243C164.672 251.321 162.819 252.488 161 253.701C161.593 259.719 162.474 265.53 163.766 271.434C163.942 272.254 164.117 273.075 164.298 273.921C164.873 276.6 165.454 279.277 166.035 281.955C166.438 283.825 166.84 285.696 167.242 287.566C168.295 292.465 169.353 297.362 170.413 302.258C171.495 307.265 172.573 312.273 173.65 317.281C175.762 327.089 177.879 336.895 180 346.701C182.216 345.876 182.216 345.876 182.821 343.522C183.089 342.56 183.356 341.597 183.632 340.606C183.94 339.517 184.247 338.428 184.563 337.306C184.891 336.118 185.218 334.93 185.555 333.705C185.898 332.487 186.24 331.269 186.594 330.015C187.508 326.763 188.417 323.51 189.321 320.256C190.586 315.705 191.857 311.156 193.135 306.609C193.815 304.19 194.49 301.769 195.159 299.347C200.533 280.2 200.533 280.2 205.812 275.576C208.402 273.19 210.807 270.842 213.062 268.139C216.661 263.942 220.575 260.089 224.5 256.201C230.175 250.616 230.175 250.616 235.5 244.701C239.538 239.906 244.081 235.597 248.531 231.189C251.63 228.109 254.683 225.046 257.5 221.701C261.538 216.906 266.081 212.597 270.531 208.189C273.63 205.109 276.683 202.046 279.5 198.701C281.825 195.995 284.225 193.412 286.746 190.889C287.432 190.202 288.118 189.515 288.824 188.807C291.877 185.765 294.934 182.729 298 179.701C297.01 179.206 297.01 179.206 296 178.701ZM222 316.701C219.86 324.069 217.724 331.438 215.591 338.808C214.865 341.317 214.137 343.825 213.409 346.334C212.364 349.932 211.322 353.531 210.281 357.131C209.953 358.258 209.625 359.385 209.287 360.546C208.987 361.587 208.686 362.628 208.377 363.701C207.977 365.08 207.977 365.08 207.569 366.487C206.917 368.643 206.917 368.643 207 370.701C209.845 369.36 212.319 367.844 214.844 365.971C215.958 365.147 215.958 365.147 217.094 364.307C218.285 363.419 218.285 363.419 219.5 362.514C220.323 361.904 221.146 361.294 221.993 360.666C231.357 353.715 240.683 346.713 250 339.701C246.413 336.021 242.686 332.627 238.75 329.326C238.184 328.85 237.619 328.374 237.036 327.884C230.029 320.799 230.029 320.799 222 316.701Z" fill="white"/>
</svg>
