<svg width="160" height="213" viewBox="0 0 160 213" fill="none" xmlns="http://www.w3.org/2000/svg">
<path d="M1.12455 33.1752L35.033 1.05309C36.3077 -0.154446 38.4085 0.749187 38.4085 2.50503V86.468C38.4085 87.5806 39.3166 88.4794 40.4292 88.4678L120.818 87.6338V37.9939C120.818 37.4762 121.019 36.9787 121.378 36.6059L155.287 1.42462C156.536 0.128871 158.727 1.01292 158.727 2.81254V174.717C158.727 175.235 158.526 175.732 158.167 176.105L124.258 211.286C123.009 212.582 120.818 211.698 120.818 209.898V112.43V87.6338L87.6201 122.078C87.2432 122.469 86.7233 122.69 86.1801 122.69H44.0395C43.5946 122.69 43.1624 122.838 42.8113 123.112L37.532 127.22C37.0451 127.599 36.7603 128.181 36.7603 128.798V174.895C36.7603 175.413 36.5596 175.91 36.2003 176.283L3.94002 209.754C2.69115 211.05 0.5 210.166 0.5 208.366V34.6271C0.5 34.0779 0.725844 33.5529 1.12455 33.1752Z" fill="white" fill-opacity="0.15"/>
<path d="M120.818 87.6338L40.4292 88.4678C39.3166 88.4794 38.4085 87.5806 38.4085 86.468V2.50503C38.4085 0.749187 36.3077 -0.154446 35.033 1.05309L1.12455 33.1752C0.725844 33.5529 0.5 34.0779 0.5 34.6271V208.366C0.5 210.166 2.69115 211.05 3.94002 209.754L36.2003 176.283C36.5596 175.91 36.7603 175.413 36.7603 174.895V128.798C36.7603 128.181 37.0451 127.599 37.532 127.22L42.8113 123.112C43.1624 122.838 43.5946 122.69 44.0395 122.69H86.1801C86.7233 122.69 87.2432 122.469 87.6201 122.078L120.818 87.6338ZM120.818 87.6338V37.9939C120.818 37.4762 121.019 36.9787 121.378 36.6059L155.287 1.42462C156.536 0.128871 158.727 1.01292 158.727 2.81254V174.717C158.727 175.235 158.526 175.732 158.167 176.105L124.258 211.286C123.009 212.582 120.818 211.698 120.818 209.898V112.43V87.6338Z" stroke="white" stroke-opacity="0.3"/>
</svg>
